<svg xmlns="http://www.w3.org/2000/svg" viewBox="0 0 24 24" fill="#539E43"><path d="M12 0c-.143 0-.284.03-.412.088l-7.83 4.437c-.255.144-.412.415-.412.706v8.895c0 .29.157.562.412.706l2.061 1.17c.993.534 1.347.535 1.8.535 1.47 0 2.309-.886 2.309-2.43V5.87c0-.124-.1-.224-.224-.224h-.98c-.125 0-.224.1-.224.224v8.236c0 .686-.696 1.35-1.822.78l-2.155-1.24a.247.247 0 0 1-.123-.214V5.232c0-.088.043-.17.114-.214l7.83-4.437a.249.249 0 0 1 .246 0l7.83 4.437c.071.044.114.126.114.214v8.895c0 .088-.043.17-.114.214l-7.83 4.437a.25.25 0 0 1-.246 0l-2.007-1.187c-.066-.04-.148-.04-.214-.003-.563.326-.67.367-.12.42-.44.47-1.085.118-1.347-.346-.07-.123-.062-.285.019-.4.036-.053.097-.094.164-.12.118-.046.188-.069 1.046-.606.062-.039.142-.037.201.004l1.552.916a.25.25 0 0 0 .246 0l7.83-4.437c.071-.044.114-.126.114-.214V5.232c0-.088-.043-.17-.114-.214l-7.83-4.437A.822.822 0 0 0 12 0zm2.88 5.085c-2.12 0-3.383 1.1-3.383 2.942 0 1.991 1.472 2.542 3.85 2.79 2.848.295 3.065.73 3.065 1.32 0 1.02-.813 1.457-2.727 1.457-2.407 0-2.936-.604-3.115-1.804-.016-.1-.101-.173-.204-.173h-1.006c-.114 0-.204.093-.204.207 0 1.208.654 2.646 4.53 2.646 2.707 0 4.262-1.07 4.262-2.94 0-1.856-1.25-2.352-3.871-2.703-2.656-.356-2.944-.535-2.944-1.163 0-.518.23-1.214 2.2-1.214 1.763 0 2.415.38 2.683 1.573.023.95.101.165.198.165h1.006c.057 0 .112-.023.15-.065.04-.042.06-.099.055-.156-.153-1.813-1.358-2.654-4.093-2.654z"/></svg>
