<svg xmlns="http://www.w3.org/2000/svg" viewBox="0 0 24 24" fill="#3178C6"><path d="M1.125 0C.502 0 0 .502 0 1.125v21.75C0 23.498.502 24 1.125 24h21.75c.623 0 1.125-.502 1.125-1.125V1.125C24 .502 23.498 0 22.875 0zm17.363 9.75c.612 0 1.2.097 1.725.29.525.193.975.47 1.35.83.375.36.645.78.825 1.26.18.48.255.995.255 1.545 0 .69-.13 1.297-.39 1.815-.26.517-.627.935-1.095 1.252-.468.317-1.023.557-1.665.72-.642.162-1.35.243-2.115.243-.77 0-1.455-.093-2.07-.28-.615-.187-1.142-.45-1.582-.788-.44-.337-.795-.742-1.065-1.215-.27-.473-.443-1-.518-1.583h3.098c.075.32.203.59.39.815.185.225.423.403.713.533.29.13.63.195 1.02.195.385 0 .72-.05 1.005-.15.285-.1.507-.24.675-.42.167-.18.25-.39.25-.63 0-.25-.07-.465-.225-.645-.155-.18-.395-.327-.72-.442-.325-.115-.753-.223-1.275-.323-.73-.143-1.355-.312-1.875-.503-.52-.19-.952-.442-1.297-.75-.345-.308-.605-.683-.78-1.125-.175-.442-.257-.957-.247-1.545.01-.54.097-1.03.263-1.477.165-.448.403-.84.713-1.178.31-.337.683-.603 1.125-.798.442-.195.947-.293 1.515-.293.8 0 1.5.097 2.1.29.6.193 1.102.467 1.507.823.405.355.705.775.9 1.26.195.485.3 1.02.315 1.605h-3.135c-.05-.485-.207-.85-.472-1.095-.265-.245-.667-.367-1.207-.367-.275 0-.522.037-.742.113-.22.075-.4.187-.54.33-.14.143-.21.323-.21.54 0 .235.077.44.232.615.155.175.392.325.712.45.32.125.75.24 1.298.345.73.135 1.357.297 1.882.487.525.19.965.435 1.32.735.355.3.617.67.787 1.11.17.44.255.95.255 1.53 0 .58-.103 1.105-.308 1.575-.205.47-.5.87-.885 1.2-.385.33-.85.585-1.395.765-.545.18-1.148.27-1.807.27-.855 0-1.617-.097-2.287-.29-.67-.193-1.24-.47-1.703-.833-.462-.363-.82-.797-1.072-1.303-.253-.505-.397-1.077-.435-1.717zm-8.938-.033h3v7.5h-3v-7.5z" fill="#3178C6"/></svg>
